<svg width="68" height="68" viewBox="0 0 68 68" fill="none" xmlns="http://www.w3.org/2000/svg">
<rect opacity="0.01" width="68" height="68" fill="white"/>
<path fill-rule="evenodd" clip-rule="evenodd" d="M57.4342 9.24191L57.4337 9.24403C57.9526 20.7158 54.6281 29.6623 47.5594 35.8461C47.7797 36.7952 48.5066 40.8303 45.7544 43.7087C44.6544 44.8596 43.638 45.8822 42.7336 46.7485C42.4169 47.0554 41.9932 47.227 41.5522 47.227C41.4473 47.2269 41.3426 47.2174 41.2394 47.1987C40.697 47.1032 40.2345 46.7509 39.9983 46.2534L37.7527 41.593C35.8426 42.321 33.8587 42.8382 31.8363 43.1353L31.6736 43.1539L23.241 34.7436L23.2589 34.5805C23.5522 32.5487 24.0669 30.555 24.7939 28.6352C24.1979 28.3797 22.9329 27.7745 20.122 26.43L20.1176 26.4278C19.6212 26.1908 19.2685 25.7302 19.169 25.1893C19.0695 24.6483 19.2351 24.0925 19.6145 23.6942C20.4728 22.7928 21.4928 21.7734 22.646 20.6645C25.5173 17.9042 29.5541 18.6197 30.5038 18.8371C36.6731 11.7445 45.6196 8.39361 57.1088 8.88767C57.1238 8.89023 57.1386 8.89387 57.1531 8.89855C57.2692 8.91226 57.3676 8.9901 57.4078 9.09987C57.4142 9.11968 57.4187 9.14003 57.4213 9.16067C57.4264 9.1776 57.4303 9.19487 57.4329 9.21235L57.4335 9.23751L57.4342 9.24191ZM46.879 35.5779C46.9015 35.5318 46.9341 35.4915 46.9746 35.46C53.9171 29.4671 57.2057 20.752 56.7622 9.55996C45.5651 9.15118 36.8636 12.4619 30.8909 19.4214L30.879 19.4345L30.8783 19.4353L30.8767 19.4365C30.8462 19.471 30.8089 19.499 30.7672 19.5186C30.7565 19.5229 30.7454 19.5266 30.7342 19.5297C30.7028 19.5416 30.6697 19.5487 30.6362 19.5507C30.6335 19.5508 30.631 19.5516 30.6284 19.5524C30.6256 19.5533 30.6229 19.5541 30.62 19.5541C30.6056 19.5525 30.5913 19.55 30.5773 19.5467C30.5618 19.5467 30.5463 19.5457 30.531 19.5435C30.4869 19.5312 26.036 18.3482 23.1174 21.1545C21.9713 22.2565 20.9586 23.2689 20.1072 24.1631C19.8778 24.4035 19.7775 24.7393 19.8376 25.0662C19.8978 25.3931 20.111 25.6713 20.411 25.8143C20.411 25.8143 25.2916 28.1491 25.356 28.1796L25.6386 28.3131L25.5297 28.6063C24.8021 30.5097 24.2747 32.4836 23.9558 34.4962L31.9189 42.4384C33.9305 42.1138 35.9029 41.5807 37.8042 40.848C38.1137 40.7755 38.114 40.7762 40.5792 45.8929L40.6108 45.9586C40.7548 46.2582 41.0337 46.4706 41.3608 46.5297C41.6879 46.5889 42.0236 46.4876 42.2634 46.2574C43.1605 45.3981 44.1699 44.3824 45.2629 43.2386C48.0616 40.3117 46.8653 35.8652 46.853 35.8203C46.8473 35.7924 46.8452 35.7639 46.8468 35.7355C46.8468 35.7306 46.8462 35.7258 46.8455 35.721C46.8447 35.7145 46.8438 35.7081 46.8444 35.7016C46.848 35.6643 46.8579 35.6279 46.8737 35.5939C46.8748 35.5914 46.8755 35.5889 46.8761 35.5864C46.8769 35.5835 46.8776 35.5806 46.879 35.5779Z" fill="black"/>
<path fill-rule="evenodd" clip-rule="evenodd" d="M36.3428 24.8862C36.3429 21.958 38.7167 19.5843 41.645 19.5844C44.5718 19.5879 46.9435 21.9598 46.9469 24.8866C46.9468 27.8148 44.5729 30.1885 41.6447 30.1884C38.7164 30.1883 36.3427 27.8145 36.3428 24.8862ZM37.3746 26.6552C38.0901 28.3824 39.7755 29.5085 41.645 29.5084C44.1964 29.5055 46.2639 27.4379 46.2669 24.8866C46.2669 23.0171 45.1408 21.3317 43.4137 20.6162C41.6865 19.9008 39.6985 20.2962 38.3765 21.6181C37.0546 22.94 36.6592 24.9281 37.3746 26.6552Z" fill="black"/>
<path d="M26.3978 44.7238C26.2366 44.6273 26.0278 44.6798 25.9313 44.841C25.8349 45.0022 25.8873 45.211 26.0485 45.3075C27.2928 46.112 28.0419 47.4947 28.0361 48.9764C28.0076 50.4756 27.4009 51.9058 26.3427 52.9681C25.2652 54.0384 23.9271 54.809 22.4606 55.2037C21.8128 55.3919 21.1318 55.5267 20.4737 55.6572L19.9245 55.7675C17.5043 56.2638 15.1295 56.9604 12.8247 57.8503C12.7354 57.8849 12.6451 57.924 12.5554 57.9672C12.2592 58.112 11.9118 58.1068 11.6201 57.9532C11.3685 57.8236 11.1965 57.579 11.1595 57.2985C10.9795 55.9518 11.0301 54.5844 11.3089 53.2547C11.751 51.2499 12.5386 49.3375 13.6365 47.6028C14.1511 46.7598 14.171 46.0549 13.6916 45.6694C13.4662 45.5113 13.1998 45.4219 12.9246 45.4121L10.7242 45.1604C10.6629 45.1551 10.6021 45.1451 10.5423 45.1305C10.5403 45.1245 10.5244 45.0664 10.5991 44.8708C11.3347 42.6598 12.8757 40.8067 14.9155 39.6802C17.0501 38.6359 19.7239 39.0082 21.1334 40.5471C21.2603 40.6853 21.4752 40.6945 21.6135 40.5677C21.7518 40.4409 21.7613 40.2261 21.6348 40.0876C20.0031 38.3066 17.0521 37.8779 14.6166 39.0693C12.4214 40.2709 10.7599 42.256 9.96358 44.6285C9.81142 44.9283 9.83365 45.2871 10.0217 45.5658C10.1878 45.7324 10.4114 45.829 10.6466 45.8358L12.8473 46.0874C12.9935 46.0906 13.1367 46.1289 13.265 46.199C13.4785 46.3707 13.2972 46.8538 13.0561 47.2483C11.917 49.0506 11.1002 51.0375 10.6423 53.1199C10.3484 54.525 10.2956 55.9699 10.4862 57.3928C10.5541 57.8878 10.8567 58.3198 11.2987 58.5529C11.5446 58.6837 11.819 58.7519 12.0975 58.7514C12.3581 58.7515 12.6154 58.6929 12.8503 58.5801C12.9233 58.5449 12.9964 58.5131 13.0694 58.4848C15.339 57.6085 17.6774 56.9224 20.0607 56.4335L20.6058 56.3243C21.2785 56.1911 21.9741 56.053 22.6505 55.8564C24.2314 55.4285 25.6732 54.5952 26.8331 53.4389C28.0138 52.2484 28.6885 50.6475 28.716 48.9711C28.7175 47.2528 27.8438 45.652 26.3978 44.7238Z" fill="black"/>
</svg>
