<svg width="52" height="52" viewBox="0 0 52 52" fill="none" xmlns="http://www.w3.org/2000/svg">
<path d="M5.68922 18.2135C5.71828 18.2214 5.74826 18.2254 5.77837 18.2253C5.93429 18.2252 6.07064 18.1203 6.11079 17.9696L10.2025 2.63923C10.5489 1.35439 11.8683 0.590859 13.1549 0.930668L25.8222 4.31174C27.109 4.65535 27.8737 5.97694 27.5304 7.26382L26.6472 10.5736C26.6236 10.6618 26.6361 10.7558 26.6818 10.8349C26.7276 10.914 26.8029 10.9716 26.8911 10.9951C27.0405 11.0348 27.1977 10.9678 27.2725 10.8326C28.5974 9.81166 30.428 9.75659 31.8119 10.696C33.1958 11.6355 33.8202 13.3572 33.3603 14.9653C32.9004 16.5735 31.46 17.7047 29.7887 17.7704C28.1485 17.8326 26.6463 16.8567 26.0364 15.3328C26.0065 15.2148 25.9156 15.1218 25.7983 15.0892C25.6148 15.0418 25.4271 15.1503 25.3767 15.3331L23.4387 22.5942C23.4152 22.6825 23.4276 22.7765 23.4734 22.8555C23.5191 22.9346 23.5944 22.9922 23.6827 23.0158C23.7117 23.0237 23.7417 23.0276 23.7718 23.0276C23.9277 23.0274 24.0641 22.9225 24.1042 22.7719L25.8123 16.3722C26.6506 17.6716 28.0897 18.4583 29.636 18.4625C29.6958 18.4625 29.7557 18.4611 29.8156 18.4588C31.6887 18.3933 33.3312 17.1894 33.9575 15.4229C34.5839 13.6565 34.0666 11.6867 32.6531 10.456C31.2397 9.22524 29.2175 8.98374 27.554 9.84702L28.1959 7.44149C28.4081 6.64699 28.2959 5.80075 27.884 5.08898C27.4722 4.37721 26.7944 3.85823 25.9998 3.64624L13.3325 0.265154C11.6782 -0.174381 9.98021 0.808181 9.53695 2.46155L5.44527 17.7919C5.42168 17.8802 5.43413 17.9742 5.47989 18.0533C5.52564 18.1324 5.60094 18.19 5.68922 18.2135Z" fill="black"/>
<path d="M49.2572 9.58875L33.875 5.69596C33.7555 5.6655 33.6289 5.70119 33.5429 5.78953C33.4569 5.87788 33.4247 6.00544 33.4584 6.12403C33.492 6.24263 33.5865 6.3342 33.7061 6.36416L49.0883 10.257C49.7084 10.414 50.2407 10.8108 50.5681 11.3603C50.8955 11.9097 50.9912 12.5668 50.8342 13.1868L47.6176 25.8969C47.2905 27.1879 45.9789 27.9696 44.6877 27.6431L41.3669 26.8026C41.1825 26.7563 40.9953 26.868 40.9484 27.0523C40.9119 27.2023 40.981 27.3581 41.1167 27.4318C42.1486 28.7387 42.2292 30.5591 41.3169 31.9522C40.4045 33.3453 38.7036 33.9989 37.0931 33.5753C35.4826 33.1516 34.3235 31.7457 34.2146 30.084C34.1058 28.4223 35.0717 26.8772 36.6131 26.2471C36.6247 26.2404 36.6359 26.2329 36.6466 26.2248C36.7407 26.1877 36.8124 26.1093 36.8409 26.0123C36.8873 25.8278 36.7756 25.6406 36.5912 25.5937L29.3056 23.7499C29.186 23.7191 29.0591 23.7547 28.9729 23.8431C28.8867 23.9315 28.8544 24.0593 28.8882 24.1781C28.922 24.2968 29.0168 24.3884 29.1367 24.4182L35.5576 26.0431C33.8837 27.1546 33.1351 29.2312 33.7148 31.1552C34.2945 33.0791 36.0656 34.3965 38.075 34.3982C38.1564 34.3982 38.2382 34.3958 38.32 34.3918C39.8779 34.316 41.2883 33.4468 42.0564 32.0892C42.8245 30.7316 42.8431 29.0751 42.1057 27.7006L44.5189 28.3113C45.3162 28.5132 46.1611 28.3901 46.8676 27.9689C47.5741 27.5478 48.0843 26.8632 48.2859 26.0658L51.5024 13.3557C51.9205 11.6958 50.9162 10.0107 49.2572 9.58875Z" fill="black"/>
<path d="M46.3618 33.3804C46.2733 33.3575 46.1793 33.3708 46.1006 33.4175C46.022 33.4642 45.9652 33.5403 45.943 33.629L42.0273 49.0055C41.8695 49.6254 41.4719 50.1572 40.922 50.4839C40.3721 50.8106 39.7149 50.9055 39.095 50.7477L26.3897 47.5123C25.0998 47.1822 24.3205 45.8704 24.6475 44.5797L25.4927 41.2602C25.5153 41.1717 25.5019 41.0778 25.4552 40.9993C25.4086 40.9207 25.3326 40.8639 25.244 40.8414C25.094 40.8031 24.9373 40.8721 24.864 41.0085C23.7273 41.907 22.184 42.0955 20.8644 41.4971C19.5448 40.8987 18.6698 39.6136 18.5966 38.1665C18.5009 36.2822 19.7762 34.6028 21.6171 34.1893C23.458 33.7757 25.3291 34.7483 26.0484 36.4925C26.0865 36.6418 26.2212 36.7461 26.3752 36.7456C26.5326 36.7455 26.6698 36.6387 26.7087 36.4862L28.5632 29.2036C28.6102 29.0193 28.4989 28.8317 28.3146 28.7847C28.1302 28.7377 27.9427 28.849 27.8957 29.0334L26.261 35.4527C25.2851 33.9809 23.5471 33.2051 21.7999 33.4613C20.0527 33.7175 18.6106 34.9597 18.0985 36.6497C17.5863 38.3396 18.0962 40.1734 19.4072 41.3564C20.2428 42.1157 21.3318 42.5356 22.4609 42.5337C22.5396 42.5337 22.6187 42.5317 22.6981 42.5277C23.3614 42.492 24.0087 42.3109 24.5942 41.9971L23.98 44.4095C23.7769 45.2065 23.8988 46.0515 24.3187 46.7586C24.7387 47.4657 25.4225 47.9769 26.2195 48.1799L38.9248 51.4153C39.1766 51.4796 39.4354 51.5123 39.6953 51.5125C41.1109 51.5084 42.3445 50.5474 42.6948 49.1758L46.6105 33.7993C46.6331 33.7108 46.6196 33.6169 46.573 33.5383C46.5264 33.4597 46.4504 33.4029 46.3618 33.3804V33.3804Z" fill="black"/>
<path d="M17.9918 45.608L2.6476 41.5671C2.02904 41.4043 1.50051 41.0023 1.17832 40.4498C0.856131 39.8972 0.766679 39.2393 0.929649 38.6207L4.26832 25.9423C4.60887 24.6553 5.92682 23.8867 7.21469 24.224L10.5271 25.0965C10.6933 25.1421 10.8674 25.0566 10.9329 24.8972C10.9983 24.7378 10.9346 24.5547 10.7843 24.4703C9.89475 23.3263 9.71854 21.7813 10.3276 20.4663C10.9367 19.1514 12.2292 18.2867 13.677 18.2253C15.5632 18.1449 17.2329 19.4355 17.6303 21.2811C18.0277 23.1268 17.0371 24.9901 15.285 25.6931C15.1688 25.7239 15.0777 25.814 15.0458 25.9299C15.0224 26.0182 15.0352 26.1122 15.0812 26.1912C15.1272 26.2701 15.2027 26.3275 15.2911 26.3508L22.5586 28.2646C22.7422 28.3123 22.9299 28.2025 22.9782 28.019C23.0266 27.8355 22.9175 27.6475 22.7342 27.5984L16.329 25.9117C18.4026 24.5709 19.0361 21.8253 17.7595 19.7115C16.483 17.5977 13.7582 16.8802 11.6062 18.0913C9.45424 19.3023 8.65342 22.0037 9.79777 24.1919L7.39032 23.5578C5.73434 23.1221 4.03857 24.1109 3.60214 25.7667L0.263459 38.4451C0.0539415 39.2403 0.168923 40.0862 0.583105 40.7966C0.997288 41.5071 1.67674 42.0238 2.47197 42.2333L17.8162 46.2742C17.9353 46.3061 18.0625 46.2718 18.1495 46.1843C18.2365 46.0968 18.27 45.9695 18.2375 45.8505C18.2049 45.7315 18.1112 45.639 17.9918 45.608V45.608Z" fill="black"/>
</svg>
