<svg width="68" height="68" viewBox="0 0 68 68" fill="none" xmlns="http://www.w3.org/2000/svg">
<rect opacity="0.01" width="68" height="68" fill="white"/>
<path fill-rule="evenodd" clip-rule="evenodd" d="M52.7904 28.503L58.7339 21.5322C59.0977 21.1303 59.2479 20.579 59.1383 20.0481C59.0287 19.5173 58.6726 19.0705 58.1795 18.8454L41.0227 10.3643C40.8544 10.2811 40.6504 10.3501 40.5672 10.5184C40.4839 10.6867 40.5529 10.8907 40.7212 10.974L57.8899 19.4607C58.1898 19.5947 58.4067 19.865 58.4727 20.1868C58.5386 20.5086 58.4455 20.8424 58.2226 21.0836L52.1982 28.1491L44.0947 23.4258C43.9324 23.3312 43.7241 23.3861 43.6295 23.5483C43.5349 23.7106 43.5897 23.9189 43.752 24.0135L51.5546 28.5613L33.7718 37.0543L16.0045 28.5684L23.4802 24.4159C23.5873 24.3573 23.6547 24.2458 23.6569 24.1238C23.6591 24.0017 23.5958 23.8879 23.4909 23.8254C23.386 23.763 23.2557 23.7615 23.1495 23.8216L15.5102 28.0649L9.57938 21.1557C9.35577 20.9141 9.26235 20.5796 9.32846 20.2571C9.39457 19.9346 9.61211 19.6638 9.91274 19.5297L26.6119 10.9716C26.7207 10.9165 26.7917 10.8074 26.7979 10.6856C26.8041 10.5638 26.7446 10.448 26.642 10.3821C26.5394 10.3162 26.4093 10.3103 26.3012 10.3667L9.61457 18.9185C9.12268 19.1461 8.76872 19.5945 8.66155 20.1258C8.55438 20.6572 8.70684 21.2077 9.07203 21.6083L14.8783 28.3735L9.03551 33.8788C8.63945 34.2517 8.44582 34.7916 8.51466 35.3313C8.5835 35.8709 8.90648 36.3449 9.38348 36.6064L14.9231 39.6836V49.5158C14.9251 50.1701 15.3005 50.7658 15.89 51.0498L33.0394 59.2403C33.5026 59.4626 34.0417 59.4626 34.505 59.2403L51.6544 51.0498C52.2438 50.7658 52.6193 50.1701 52.6213 49.5158V39.5429L58.0885 36.5543C58.5663 36.2933 58.8903 35.8192 58.9597 35.2792C59.029 34.7392 58.8355 34.1986 58.4391 33.8253L52.7904 28.503ZM9.18957 35.2464C9.146 34.9221 9.26233 34.5967 9.50169 34.3735L15.2468 28.9603L33.0643 37.4701L25.9193 44.2014C25.5992 44.5044 25.1201 44.5665 24.7333 44.3551L9.71152 36.0108C9.424 35.8556 9.22948 35.5707 9.18957 35.2464ZM15.6031 49.5158C15.6042 49.9085 15.8297 50.2659 16.1835 50.4362L33.3329 58.6267C33.3653 58.6399 33.3983 58.6514 33.4318 58.6612V38.0577L26.3855 44.696C25.8506 45.2017 25.0506 45.3046 24.4052 44.9507L15.6031 40.0613V49.5158ZM51.9413 49.5158C51.9401 49.9085 51.7147 50.2659 51.3609 50.4362L34.2114 58.6267C34.1789 58.64 34.1456 58.6516 34.1118 58.6614V38.445L40.7472 44.696C41.2823 45.2022 42.083 45.3051 42.7287 44.9507L51.9413 39.9147L51.9413 49.5158ZM57.7625 35.9573C58.0504 35.802 58.2454 35.517 58.2857 35.1923L58.2857 35.1923C58.3287 34.8682 58.2122 34.5433 57.9729 34.3204L52.2889 28.9644L34.2066 37.6004L41.2133 44.2013C41.5347 44.5049 42.0152 44.5665 42.4027 44.3537L57.7625 35.9573Z" fill="black"/>
<path d="M32.8519 25.674C33.2499 26.0604 33.883 26.0604 34.281 25.674L39.8312 20.23C39.9644 20.0981 39.9659 19.8835 39.8346 19.7498C39.7033 19.6162 39.4886 19.6138 39.3544 19.7445L33.9065 25.0882V8.49997C33.9065 8.3122 33.7542 8.15997 33.5665 8.15997C33.3787 8.15997 33.2265 8.3122 33.2265 8.49997V25.0889L27.7778 19.7445C27.6911 19.6594 27.5656 19.6269 27.4484 19.6594C27.3313 19.692 27.2404 19.7845 27.21 19.9022C27.1796 20.0198 27.2143 20.1448 27.301 20.23L32.8519 25.674Z" fill="black"/>
</svg>
