<svg width="60" height="60" viewBox="0 0 60 60" fill="none" xmlns="http://www.w3.org/2000/svg">
<path fill-rule="evenodd" clip-rule="evenodd" d="M39.8927 23.5903V27.193H36.1943V29.7155H39.8927V33.32H42.6658V29.7155H46.3633V27.1029H42.6658V23.5903H39.8927ZM23.6238 26.3825V30.4366H29.17C28.8002 32.7789 26.6742 34.4906 23.6238 34.4906C20.296 34.4906 17.5229 31.6978 17.5229 28.4546C17.5229 25.2113 20.2036 22.4186 23.6238 22.4186C25.1952 22.4186 26.4893 22.869 27.5985 23.9501L30.5565 21.0672C28.7078 19.4456 26.3969 18.4546 23.6238 18.4546C17.9851 18.4546 13.3633 22.9591 13.3633 28.4546C13.3633 33.9501 17.9851 38.4546 23.6238 38.4546C29.6321 38.4546 33.5145 34.3104 33.5145 28.6348C33.5145 27.9141 33.422 27.1032 33.3296 26.3825H23.6238Z" fill="white"/>
</svg>
