<svg width="60" height="60" viewBox="0 0 60 60" fill="none" xmlns="http://www.w3.org/2000/svg">
<path fill-rule="evenodd" clip-rule="evenodd" d="M27.6518 41.7271H33.0355V33.1356C33.0355 30.8705 33.4659 28.6769 36.2695 28.6769C39.0325 28.6769 39.0694 31.2673 39.0694 33.2812V41.7271H44.4541V32.2008C44.4541 27.5252 43.447 23.928 37.9904 23.928C35.3689 23.928 33.6112 25.3675 32.892 26.733H32.8196V24.3599H27.6518V41.7271ZM21.5789 15.7271C23.3015 15.7271 24.7016 17.1294 24.7016 18.8557C24.7016 20.5833 23.3015 21.9859 21.5789 21.9859C19.8517 21.9859 18.4541 20.5833 18.4541 18.8557C18.4541 17.1294 19.8517 15.7271 21.5789 15.7271ZM18.8832 41.7271H24.2717V24.3599H18.8832V41.7271Z" fill="white"/>
</svg>
